<svg xmlns="http://www.w3.org/2000/svg" viewBox="0 0 64 64" id="CloudStorage"><path d="M50 39.2a14 14 0 0 0 0-28h-.85a18.71 18.71 0 0 0-34.3 0H14a14 14 0 0 0 0 28h5V48h-4.15a7.52 7.52 0 1 0-.29 4H21a2 2 0 0 0 2-2V39.2h7v10.08a7.5 7.5 0 1 0 4 0V39.2h7V50a2 2 0 0 0 2 2h6.47a7.48 7.48 0 1 0-.29-4H45v-8.8ZM7.5 53a3.5 3.5 0 1 1 3.5-3.5A3.5 3.5 0 0 1 7.5 53Zm49-7a3.5 3.5 0 1 1-3.5 3.5 3.5 3.5 0 0 1 3.5-3.5Zm-21 10.5A3.5 3.5 0 1 1 32 53a3.5 3.5 0 0 1 3.5 3.5ZM14 35.2a10 10 0 0 1 0-20 9.78 9.78 0 0 1 1.79.17A2 2 0 0 0 18.06 14a14.7 14.7 0 0 1 27.88 0 2 2 0 0 0 2.27 1.34A9.78 9.78 0 0 1 50 15.2a10 10 0 0 1 0 20Z" fill="#354ee1" class="color000000 svgShape"></path></svg>